<?xml version="1.0" encoding="UTF-8"?>
<svg width="169px" height="102px" viewBox="0 0 169 102" version="1.1" xmlns="http://www.w3.org/2000/svg" xmlns:xlink="http://www.w3.org/1999/xlink">
    <!-- Generator: Sketch 47 (45396) - http://www.bohemiancoding.com/sketch -->
    <title>affirm</title>
    <desc>Created with Sketch.</desc>
    <defs></defs>
    <g id="Page-1" stroke="none" stroke-width="1" fill="none" fill-rule="evenodd">
        <g id="affirm-logo" transform="translate(1.000000, 24.000000)" fill-rule="nonzero" fill="#FFFFFF">
            <path d="M87.1173601,2.62174908e-16 C84.2858327,0.00651744961 81.9950465,2.33139243 81.9993416,5.19417887 C82.0036367,8.05696532 84.3013884,10.3748032 87.1329224,10.3726357 C89.9644564,10.3704681 92.2587339,8.04911504 92.2587413,5.1863253 C92.2571935,3.8092603 91.7146441,2.48921803 90.7504479,1.51659317 C89.7862517,0.543968313 88.4793908,-0.00156662634 87.1173601,2.62174908e-16 Z" id="Shape"></path>
            <rect id="Rectangle-path" x="82.7117133" y="13.7790361" width="8.75582168" height="35.218012"></rect>
            <path d="M117.796311,12.8728313 C113.416941,12.8728313 108.380664,16.0607831 106.722343,20.0575301 L106.722343,13.7790361 L98.4161364,13.7790361 L98.4161364,49 L107.174878,49 L107.174878,32.6440361 C107.174878,25.7220482 109.8025,21.8581325 115.527797,21.7489157 L120.415175,13.076506 C119.548008,12.9467532 118.672904,12.8786944 117.796311,12.8728313 Z" id="Shape"></path>
            <path d="M152.986014,12.8964458 C149.228514,12.8964458 145.859318,14.3251205 143.497378,16.9168072 L143.374755,17.0496386 L143.255052,16.9168072 C140.919388,14.3251205 137.56771,12.8964458 133.80729,12.8964458 C125.755087,12.8964458 119.910087,18.8325301 119.910087,27.0090361 L119.910087,49 L128.528689,49 L128.528689,26.8201205 C128.528689,23.3871687 130.601591,21.1703614 133.80729,21.1703614 C137.01299,21.1703614 139.088811,23.3871687 139.088811,26.8201205 L139.088811,49 L147.730769,49 L147.730769,26.8201205 C147.730769,23.3871687 149.803671,21.1703614 153.01229,21.1703614 C156.220909,21.1703614 158.293811,23.3871687 158.293811,26.8201205 L158.293811,49 L166.909493,49 L166.909493,27.0090361 C166.894895,18.8325301 161.049895,12.8964458 152.986014,12.8964458 Z" id="Shape"></path>
            <path d="M72.1136364,10.535 C72.1136364,9.37198795 72.2683741,7.98168675 73.2522727,7.21716867 C74.3295979,6.37 75.9061713,6.52644578 77.182028,6.59138554 L78.8812238,0.180060241 L77.9732343,0.132831325 C74.3179196,-0.064939759 70.4728322,-0.339457831 67.2671329,1.80355422 C64.5490035,3.61891566 63.3402972,6.74487952 63.3402972,9.95349398 L63.3402972,13.7908434 L52.896958,13.7908434 L52.896958,10.5438554 C52.896958,9.38674699 53.0487762,8.01120482 54.0122378,7.23783133 C55.0895629,6.37295181 56.6865734,6.5353012 57.9624301,6.60024096 L59.6616259,0.188915663 L58.7536364,0.141686747 C55.0691259,-0.0590361446 51.1860839,-0.33060241 47.977465,1.87144578 C45.3148077,3.69566265 44.1352972,6.79506024 44.1352972,9.9653012 L44.1352972,13.8026506 L40.1880245,13.8026506 L40.1880245,20.181506 L44.1382168,20.181506 L44.1382168,49 L52.896958,49 L52.896958,20.181506 L63.3373776,20.181506 L63.3373776,49 L72.0961189,49 L72.0961189,20.181506 L78.1600874,20.181506 L78.1600874,13.7790361 L72.1136364,13.7790361 L72.1136364,10.5320482 L72.1136364,10.535 Z" id="Shape"></path>
            <path d="M35.7444231,49 L35.7444231,17.899759 C35.7144152,15.3276095 33.7988715,13.1785434 31.2716259,12.8816867 C29.5987063,12.7724699 27.8206818,13.3923494 26.7725524,14.7649398 L0,49 L6.59825175,49 C9.22587413,49 11.3221329,47.6156024 12.907465,45.5463855 L27.736014,26.5869277 L27.736014,49 L35.7502622,49 L35.7444231,49 Z" id="Shape"></path>
        </g>
    </g>
</svg>