<?xml version="1.0" encoding="UTF-8"?>
<svg width="302px" height="102px" viewBox="0 0 302 102" version="1.1" xmlns="http://www.w3.org/2000/svg" xmlns:xlink="http://www.w3.org/1999/xlink">
    <!-- Generator: Sketch 47 (45396) - http://www.bohemiancoding.com/sketch -->
    <title>dailymotion</title>
    <desc>Created with Sketch.</desc>
    <defs></defs>
    <g id="Page-1" stroke="none" stroke-width="1" fill="none" fill-rule="evenodd">
        <g id="Dailymotion_logo_(2015)" transform="translate(1.000000, 29.000000)" fill-rule="nonzero" fill="#FFFFFF">
            <path d="M255.63695,21.8549243 C259.552554,21.8549243 262.739574,25.1540773 262.739574,29.2343352 C262.739574,33.371638 259.552554,36.6704077 255.63695,36.6704077 C251.721346,36.6704077 248.534326,33.371638 248.534326,29.2343352 C248.534326,25.1540773 251.776735,21.8549243 255.63695,21.8549243 Z M244.395034,40.3605497 C247.413756,43.3793115 251.384749,45.0563778 255.468651,45.0563778 C259.831631,45.0563778 263.578936,43.5464645 266.599788,40.6959203 C269.786809,37.6771585 271.523053,33.5396427 271.523053,29.4585544 C271.523053,24.930071 270.012627,21.1837784 266.991775,18.1651869 C263.915533,15.0902106 260.110708,13.4693375 255.58156,13.4693375 C250.994893,13.4693375 247.302977,15.0344006 244.226735,18.2769771 C241.316662,21.2959732 239.808366,25.1540773 239.808366,29.3463383 C239.808366,33.5396427 241.429571,37.3969377 244.395034,40.3605497 L244.395034,40.3605497 Z" id="path14" transform="translate(255.665710, 29.262858) scale(-1, 1) rotate(-180.000000) translate(-255.665710, -29.262858) "></path>
            <path d="M190.8859,21.8549243 C194.801078,21.8549243 197.989376,25.1540773 197.989376,29.2343352 C197.989376,33.371638 194.801078,36.6704077 190.8859,36.6704077 C186.970722,36.6704077 183.782637,33.371638 183.782637,29.2343352 C183.782637,25.1540773 187.026964,21.8549243 190.8859,21.8549243 Z M179.643132,40.3605497 C182.663558,43.3793115 186.634551,45.0563778 190.717815,45.0563778 C195.081433,45.0563778 198.828526,43.5464645 201.848526,40.6959203 C205.036824,37.6771585 206.77179,33.5396427 206.77179,29.4585544 C206.77179,24.930071 205.261151,21.1837784 202.240938,18.1651869 C199.163845,15.0902106 195.360724,13.4693375 190.830085,13.4693375 C186.242991,13.4693375 182.55214,15.0344006 179.475047,18.2769771 C176.567104,21.2959732 175.056464,25.1540773 175.056464,29.3463383 C175.056464,33.5396427 176.679161,37.3969377 179.643132,40.3605497 L179.643132,40.3605497 Z" id="path16" transform="translate(190.914127, 29.262858) scale(-1, 1) rotate(-180.000000) translate(-190.914127, -29.262858) "></path>
            <polyline id="path18" transform="translate(87.894654, 23.424736) scale(-1, 1) rotate(-180.000000) translate(-87.894654, -23.424736) " points="83.50398 2.63335174 92.2853287 2.63335174 92.2853287 44.2161199 83.50398 42.3857413 83.50398 2.63335174"></polyline>
            <polygon id="path20" transform="translate(74.487088, 29.202097) scale(-1, 1) rotate(-180.000000) translate(-74.487088, -29.202097) " points="70.0963389 14.1912256 78.8778368 14.1912256 78.8778368 44.2129685 70.0963389 44.2129685"></polygon>
            <path d="M74.4872263,10.7701893 C71.5117508,10.7701893 69.0993299,8.35914038 69.0993299,5.38509464 C69.0993299,2.4110489 71.5117508,0.000212933754 74.4872263,0.000212933754 C77.4624887,0.000212933754 79.8749097,2.4110489 79.8749097,5.38509464 C79.8749097,8.35914038 77.4624887,10.7701893 74.4872263,10.7701893" id="path22" transform="translate(74.487120, 5.385201) scale(-1, 1) rotate(-180.000000) translate(-74.487120, -5.385201) "></path>
            <polyline id="path24" transform="translate(110.769514, 34.065887) scale(-1, 1) rotate(-180.000000) translate(-110.769514, -34.065887) " points="110.54572 36.4416956 104.896641 53.9403785 95.1082703 53.9403785 106.12735 25.7636853 101.858107 14.1913959 110.751512 14.1913959 126.430758 53.9403785 116.921891 53.9403785 110.54572 36.4416956"></polyline>
            <path d="M16.6121517,10.5453312 C12.0815552,10.5453312 8.83750508,13.7322681 8.83750508,17.9251467 C8.83750508,21.9502334 12.0815552,25.3605804 16.2765346,25.3605804 C20.4156772,25.3605804 23.6037627,22.1180252 23.6037627,17.8133565 C23.6037627,13.6760323 20.4156772,10.5453312 16.6121517,10.5453312 L16.6121517,10.5453312 Z M29.7524111,17.7620394 C29.7524111,21.0750757 30.5574746,24.1826309 32.1056081,26.9543896 L32.1056081,44.2980568 L23.2682308,42.4678912 L23.2682308,29.3856672 C21.2545921,31.9574811 18.4579179,33.1873864 14.8222435,33.1873864 C11.0188032,33.1873864 7.60688064,31.7899022 4.81029162,29.0505095 C1.67807484,26.0315347 -2.84217094e-14,22.1738139 -2.84217094e-14,17.8689322 C-2.84217094e-14,13.1728912 1.78983572,9.14778312 5.25766747,6.07280678 C7.88649055,3.72478628 11.0188032,2.55115931 14.6544776,2.55115931 C18.2341448,2.55115931 20.9190602,3.50146136 23.5477342,6.07280678 L23.5477342,2.71867429 L32.1056081,2.71867429 L32.1056081,8.40291956 C30.5653569,11.1945237 29.7524111,14.346795 29.7524111,17.7620394 L29.7524111,17.7620394 Z" id="path26" transform="translate(16.052804, 23.424608) scale(-1, 1) rotate(-180.000000) translate(-16.052804, -23.424608) "></path>
            <path d="M173.378805,37.052765 C173.004927,38.6538139 172.373701,39.9207697 171.413121,41.0433565 C169.743344,42.9946814 167.391638,43.9128518 164.559749,44.1553833 C162.258533,44.35256 160.27538,44.0576467 158.363806,43.0491925 C156.295013,41.957694 153.94629,39.4054701 153.94629,39.4054701 C153.94629,39.4054701 151.612266,44.2126625 145.772094,44.2126625 C141.650271,44.2126625 139.13538,42.4644764 137.446003,39.6288376 L137.446003,43.6541373 L129.447775,43.6541373 L129.447775,13.6325647 L137.837777,13.6325647 L137.837777,29.4388928 C137.837777,32.7285063 138.603641,35.9936325 143.047575,35.9936325 C146.879668,35.9936325 147.178345,32.8733013 147.178345,30.2823234 L147.178345,13.6325647 L155.848276,13.6325647 L155.848276,29.5415268 C155.848276,34.6112666 158.053413,35.9923549 161.091947,35.9923549 C163.54378,35.9923549 165.188845,34.8848865 165.188845,30.2823234 L165.188845,13.6325647 L173.802534,13.6325647 L173.802534,19.3543289 C172.262496,22.1744448 171.450402,25.3411956 171.450402,28.7272682 C171.450402,31.6572366 172.129774,34.4822287 173.378805,37.052765" id="path28" transform="translate(151.625154, 28.922767) scale(-1, 1) rotate(-180.000000) translate(-151.625154, -28.922767) "></path>
            <polyline id="path30" transform="translate(216.798122, 23.423160) scale(-1, 1) rotate(-180.000000) translate(-216.798122, -23.423160) " points="221.18901 44.2129685 212.239788 42.3825899 212.239788 32.5020379 208.436242 32.5020379 208.436242 23.813276 212.239788 23.813276 212.239788 2.63335174 221.18901 2.63335174 221.18901 23.813276 225.160003 23.813276 225.160003 32.5020379 221.18901 32.5020379 221.18901 44.2129685"></polyline>
            <path d="M233.432195,0.000212933754 C236.40831,0.000212933754 238.819879,2.4110489 238.819879,5.38509464 C238.819879,8.35914038 236.40831,10.7701893 233.432195,10.7701893 C230.456081,10.7701893 228.044512,8.35914038 228.044512,5.38509464 C228.044512,2.4110489 230.456081,0.000212933754 233.432195,0.000212933754" id="path32" transform="translate(233.432195, 5.385201) scale(-1, 1) rotate(-180.000000) translate(-233.432195, -5.385201) "></path>
            <path d="M237.82287,36.905082 L237.82287,44.2129685 L229.041521,44.2129685 L229.041521,14.1913959 L237.82287,14.1913959 L237.82287,21.3530394 C236.76408,23.7817405 236.201665,26.4268249 236.201665,29.2254132 C236.201665,31.9111467 236.768341,34.5100032 237.82287,36.905082" id="path34" transform="translate(233.432195, 29.202182) scale(-1, 1) rotate(-180.000000) translate(-233.432195, -29.202182) "></path>
            <path d="M291.706095,44.2129685 C287.732971,44.2129685 284.937937,42.6476924 283.090914,39.6287177 L283.203823,43.6540174 L274.812331,43.6540174 L274.812331,13.6324448 L283.482901,13.6324448 L283.482901,29.901265 C283.482901,33.9265647 285.327793,35.9950032 288.796021,35.9950032 C292.20886,35.9950032 293.103612,34.0941435 293.103612,29.901265 L293.103612,13.6324448 L301.94035,13.6324448 L301.94035,33.4234022 C301.94035,40.2996719 297.913967,44.2129685 291.706095,44.2129685" id="path36" transform="translate(288.376340, 28.922707) scale(-1, 1) rotate(-180.000000) translate(-288.376340, -28.922707) "></path>
            <path d="M49.971669,21.7388328 C53.7745767,21.7388328 56.9628753,24.8704495 56.9628753,29.0068793 C56.9628753,33.3121869 53.7745767,36.5538904 49.6359241,36.5538904 C45.4410299,36.5538904 42.1967029,33.1441822 42.1967029,29.1186696 C42.1967029,24.9257697 45.4410299,21.7388328 49.971669,21.7388328 Z M56.9068468,17.2663084 C54.2781941,14.6949629 51.5932999,13.7446609 48.0136541,13.7446609 C44.3779797,13.7446609 41.2457097,14.9192248 38.61727,17.2663084 C35.1496812,20.3423707 33.3597517,24.3672445 33.3597517,29.0630938 C33.3597517,33.3671238 35.0374111,37.2252705 38.1696812,40.2436065 C40.9664193,42.9834251 44.3779797,44.3809093 48.1817396,44.3809093 C51.8169879,44.3809093 54.6139391,43.1514298 56.6275564,40.5789771 L56.6275564,43.9337484 L65.4645076,43.9337484 L65.4645076,13.9126017 L56.9068468,13.9126017 L56.9068468,17.2663084 L56.9068468,17.2663084 Z" id="path38" transform="translate(49.412130, 29.062785) scale(-1, 1) rotate(-180.000000) translate(-49.412130, -29.062785) "></path>
        </g>
    </g>
</svg>