<?xml version="1.0" encoding="UTF-8"?>
<svg width="248px" height="102px" viewBox="0 0 248 102" version="1.1" xmlns="http://www.w3.org/2000/svg" xmlns:xlink="http://www.w3.org/1999/xlink">
    <!-- Generator: Sketch 47 (45396) - http://www.bohemiancoding.com/sketch -->
    <title>mozilla</title>
    <desc>Created with Sketch.</desc>
    <defs></defs>
    <g id="Page-1" stroke="none" stroke-width="1" fill="none" fill-rule="evenodd">
        <g id="Mozilla_logo" transform="translate(0.000000, 19.000000)" fill-rule="nonzero" fill="#FFFFFF">
            <path d="M248.535,47.4615385 C247.996389,47.6153846 247.534722,47.6923077 247.073056,47.6923077 C245.457222,47.6923077 244.687778,47 244.687778,45 L244.687778,30 C244.687778,22.0769231 238.378333,18.2307692 230.914722,18.2307692 C225.220833,18.2307692 222.143056,18.9230769 216.064444,21.3846154 L214.833333,29.3846154 L222.758611,30.2307692 L223.912778,26.3076923 C225.528611,25.4615385 227.144444,25.3076923 229.221944,25.3076923 C234.838889,25.3076923 234.915833,29.5384615 234.915833,33.0769231 L234.915833,34.2307692 C233.146111,34 231.145556,33.9230769 229.221944,33.9230769 C221.296667,33.9230769 213.063611,35.9230769 213.063611,44.4615385 C213.063611,51.6923077 218.7575,54.3846154 223.758889,54.3846154 C229.375833,54.3846154 232.915278,51 234.915833,47.4615385 C235.3775,51.6923077 237.916667,54.3846154 242.533333,54.3846154 C244.687778,54.3846154 246.919167,53.7692308 248.765833,52.7692308 L248.535,47.4615385 Z M227.298333,47.2307692 C224.2975,47.2307692 223.220278,45.4615385 223.220278,43.2307692 C223.220278,39.4615385 226.298056,38.4615385 229.8375,38.4615385 C231.453333,38.4615385 233.223056,38.6923077 234.838889,38.9230769 C234.608056,44.6923077 230.837778,47.2307692 227.298333,47.2307692 Z M213.986944,0.692307692 L198.982778,53.5384615 L189.210833,53.5384615 L204.215,0.692307692 L213.986944,0.692307692 Z M193.8275,0.692307692 L178.823333,53.5384615 L169.051389,53.5384615 L184.055556,0.692307692 L193.8275,0.692307692 Z M152.2775,18.9230769 L162.665,18.9230769 L162.665,31.3846154 L152.2775,31.3846154 L152.2775,18.9230769 Z M152.2775,41.1538462 L162.665,41.1538462 L162.665,53.6153846 L152.2775,53.6153846 L152.2775,41.1538462 Z M137.119444,40.6923077 L144.967778,41.4615385 L142.813333,53.6153846 L112.574167,53.6153846 L111.573889,48.3846154 L130.656111,26.4615385 L119.806944,26.4615385 L118.268056,31.8461538 L111.112222,31.0769231 L112.343333,18.9230769 L142.736389,18.9230769 L143.505833,24.1538462 L124.269722,46.0769231 L135.503611,46.0769231 L137.119444,40.6923077 Z M87.4902778,18.2307692 C75.0252778,18.2307692 68.8697222,26.6153846 68.8697222,36.7692308 C68.8697222,47.8461538 76.2563889,54.3846154 86.9516667,54.3846154 C98.0316667,54.3846154 106.033889,47.3846154 106.033889,36.3076923 C106.033889,26.6153846 99.9552778,18.2307692 87.4902778,18.2307692 Z M87.2594444,46.6923077 C81.8733333,46.6923077 79.1033333,42.0769231 79.1033333,36.0769231 C79.1033333,29.5384615 82.2580556,25.7692308 87.3363889,25.7692308 C92.03,25.7692308 95.8002778,28.9230769 95.8002778,35.9230769 C95.8002778,42.6153846 92.4147222,46.6923077 87.2594444,46.6923077 Z M59.9441667,46 L64.5608333,46 L64.5608333,53.5384615 L50.0952778,53.5384615 L50.0952778,34.0769231 C50.0952778,28.0769231 48.0947222,25.7692308 44.1705556,25.7692308 C39.4,25.7692308 37.4763889,29.1538462 37.4763889,34 L37.4763889,46.0769231 L42.0930556,46.0769231 L42.0930556,53.6153846 L27.5505556,53.6153846 L27.5505556,34.0769231 C27.5505556,28.0769231 25.55,25.7692308 21.6258333,25.7692308 C16.8552778,25.7692308 14.9316667,29.1538462 14.9316667,34 L14.9316667,46.0769231 L21.5488889,46.0769231 L21.5488889,53.6153846 L0.466111111,53.6153846 L0.466111111,46.0769231 L5.08277778,46.0769231 L5.08277778,26.4615385 L0.466111111,26.4615385 L0.466111111,18.9230769 L15.0086111,18.9230769 L15.0086111,24.1538462 C17.0861111,20.4615385 20.7025,18.2307692 25.55,18.2307692 C30.5513889,18.2307692 35.1680556,20.6153846 36.8608333,25.6923077 C38.7844444,21.0769231 42.7086111,18.2307692 48.1716667,18.2307692 C54.4041667,18.2307692 60.0980556,22 60.0980556,30.2307692 L60.0980556,46 L59.9441667,46 Z" id="Shape"></path>
        </g>
    </g>
</svg>