<?xml version="1.0" encoding="UTF-8"?>
<svg width="71px" height="102px" viewBox="0 0 71 102" version="1.1" xmlns="http://www.w3.org/2000/svg" xmlns:xlink="http://www.w3.org/1999/xlink">
    <!-- Generator: Sketch 47 (45396) - http://www.bohemiancoding.com/sketch -->
    <title>try</title>
    <desc>Created with Sketch.</desc>
    <defs></defs>
    <g id="Page-1" stroke="none" stroke-width="1" fill="none" fill-rule="evenodd">
        <path d="M43.6023689,84.98463 C42.3637902,84.98463 41.2284264,84.8821635 39.9898477,84.98463 C39.0609137,85.0870965 38.8544839,84.6772306 38.8544839,83.7550322 C38.8544839,79.2465066 38.8544839,74.8404476 38.8544839,70.331922 C38.8544839,67.0529944 38.8544839,60.905005 38.8544839,57.5236109 C38.751269,53.6298843 35.964467,51.068222 31.9390863,51.273155 C31.9390863,51.683021 31.9390863,52.0928869 31.9390863,52.5027529 C31.9390863,61.9296699 31.9390863,74.1231822 31.9390863,83.5500992 C31.9390863,84.6772306 31.6294416,84.98463 30.5972927,84.8821635 C29.4619289,84.779697 28.3265651,84.8821635 27.0879865,84.8821635 C27.0879865,58.7532087 27.0879865,38.8747098 27.0879865,21.8652726 C30.8037225,21.8652726 34.6226734,21.3529401 38.1319797,23.1973369 C41.8477157,25.0417337 43.6023689,28.2181949 43.7055838,32.214388 C43.8087986,36.7229135 43.8087986,36.620447 43.7055838,41.1289726 C43.6023689,44.3054337 41.8477157,46.662163 39.4737733,48.6090263 C39.3705584,48.7114928 39.1641286,48.8139593 39.0609137,49.0188923 C39.0609137,49.0188923 39.0609137,49.1213587 39.0609137,49.1213587 C40.0930626,50.1460236 41.1252115,51.1706885 41.9509306,52.2978199 C43.1895093,53.9372837 43.7055838,55.884147 43.7055838,57.9334768 C43.7055838,65.8233965 43.7055838,76.5823779 43.7055838,84.4722976 C43.7055838,84.5747641 43.6023689,84.6772306 43.6023689,84.98463 Z M31.9390863,46.662163 C36.1708968,46.7646295 38.8544839,44.2029673 38.8544839,40.2067742 C38.8544839,36.3130476 38.8544839,38.1574444 38.8544839,34.2637178 C38.8544839,33.3415194 38.6480541,31.1897231 38.4416244,30.2675247 C37.7191201,27.603396 34.6226734,25.8614657 32.0423012,26.3737981 C31.9390863,34.6735837 31.9390863,38.3623774 31.9390863,46.662163 Z M21.6175973,26.2713316 C22.3401015,26.2713316 22.6497462,26.0663986 22.5465313,25.3491332 C22.5465313,24.4269348 22.6497462,23.6072029 22.5465313,22.6850045 C22.5465313,22.377605 22.0304569,21.8652726 21.7208122,21.8652726 C16.6632826,21.8652726 10.7800338,21.8652726 5.72250423,21.8652726 C5.20642978,21.8652726 5,22.0702056 5,22.6850045 C5,23.6072029 5,24.5294013 5,25.4515997 C5,26.1688651 5.30964467,26.2713316 5.92893401,26.2713316 C7.0642978,26.2713316 8.61252115,26.2713316 9.74788494,26.2713316 C11.3993232,26.2713316 11.3993232,26.2713316 11.3993232,27.9107954 C11.3993232,47.072029 11.3993232,64.4913322 11.3993232,83.5500992 C11.3993232,83.9599651 11.3993232,84.4722976 11.3993232,84.98463 C12.6379019,84.98463 13.5668359,84.98463 14.5989848,84.98463 C16.3536379,84.98463 16.3536379,84.98463 16.3536379,83.3451662 C16.3536379,64.1839327 16.3536379,46.7646295 16.3536379,27.7058625 C16.3536379,27.2959965 16.3536379,26.8861306 16.3536379,26.3737981 C18.0050761,26.2713316 20.0693739,26.2713316 21.6175973,26.2713316 Z M60.9424704,64.1839327 C57.9492386,64.5937986 55.0592217,62.6469353 54.4399323,59.9828066 C54.1302876,58.8556752 54.0270728,55.1668816 54.0270728,53.9372837 C54.0270728,42.4610369 54.0270728,33.1365864 54.0270728,21.7628061 C54.0270728,21.5578731 53.9238579,21.3529401 53.9238579,21.0455407 C52.7884941,21.0455407 51.6531303,21.0455407 50.6209814,21.0455407 C49.072758,21.0455407 49.072758,21.0455407 49.072758,22.582538 C49.072758,33.7513853 49.072758,42.7684364 49.072758,53.8348173 C49.072758,55.2693481 49.1759729,59.1630747 49.4856176,60.4951391 C49.8984772,62.8518683 51.1370558,64.7987316 53.0981387,66.2332625 C55.1624365,67.7702598 57.4331641,68.4875252 59.9103215,68.5899917 C60.5296108,68.5899917 61.0456853,68.6924582 61.0456853,69.5121901 C61.0456853,72.1763189 61.1489002,72.4837183 60.9424704,75.147847 C60.7360406,78.5292412 58.7749577,80.578571 54.4399323,80.2711715 C53.7174281,80.2711715 53.0981387,80.2711715 52.3756345,80.2711715 C52.3756345,81.6032359 52.3756345,82.7303673 52.3756345,83.8574986 C52.3756345,84.5747641 52.6852792,84.8821635 53.3045685,84.779697 C54.8527919,84.6772306 56.2978003,84.6772306 57.8460237,84.3698311 C60.8392555,83.8574986 63.1099831,82.2180348 64.5549915,79.5539061 C65.6903553,77.4021098 66,76.8897774 66,74.4305816 C65.8967851,58.4458093 65.8967851,41.846238 65.8967851,22.582538 C65.8967851,22.2751385 66,21.9677391 65.8967851,21.7628061 C65.7935702,21.4554066 65.4839255,21.1480072 65.1742809,21.0455407 C63.8324873,20.9430742 62.4906937,21.0455407 60.9424704,21.0455407 C60.9424704,35.4933157 60.9424704,50.0435572 60.9424704,64.1839327 Z" id="Shape" stroke="#FFFFFF" fill="#FFFFFF" fill-rule="nonzero"></path>
    </g>
</svg>