<?xml version="1.0" encoding="UTF-8"?>
<svg width="184px" height="102px" viewBox="0 0 184 102" version="1.1" xmlns="http://www.w3.org/2000/svg" xmlns:xlink="http://www.w3.org/1999/xlink">
    <!-- Generator: Sketch 47 (45396) - http://www.bohemiancoding.com/sketch -->
    <title>yelp</title>
    <desc>Created with Sketch.</desc>
    <defs></defs>
    <g id="Page-1" stroke="none" stroke-width="1" fill="none" fill-rule="evenodd">
        <g id="Yelp_Logo" transform="translate(1.000000, 1.000000)" fill-rule="nonzero" fill="#FFFFFF">
            <path d="M128.937795,49.2581904 C127.753456,47.3497495 127.253402,41.3399799 127.664631,37.351107 C127.809383,36.0347128 128.046251,34.9366151 128.391683,34.2817255 C128.865419,33.3754641 129.661558,32.8363379 130.569551,32.8032626 C131.151851,32.7734949 131.513732,32.8727206 142.462287,36.4117704 C142.462287,36.4117704 147.327947,37.9729213 147.347686,37.9828439 C148.561633,38.2937511 149.377511,39.4150014 149.456467,40.847159 C149.535423,42.3156992 148.782052,43.6122483 147.538496,44.0819166 C147.538496,44.0819166 144.107203,45.487614 144.100623,45.487614 C132.33619,50.3662106 131.806527,50.558047 131.214358,50.564662 C130.306364,50.6010448 129.500356,50.141299 128.937795,49.2581904" id="path1384" transform="translate(138.492424, 41.683333) scale(-1, 1) rotate(-180.000000) translate(-138.492424, -41.683333) "></path>
            <path d="M154.674936,50.8250734 C154.859223,51.365524 154.881465,51.7354753 154.913238,62.9819946 C154.913238,62.9819946 154.938657,67.9522098 154.941835,68.0004643 C155.018091,69.2196951 154.239637,70.3295489 152.965512,70.824962 C151.65326,71.3364598 150.239331,71.021197 149.444989,70.02072 C149.444989,70.02072 147.125511,67.234826 147.119156,67.234826 C139.159851,57.7672899 138.826228,57.3297822 138.632408,56.7700298 C138.514846,56.4418991 138.467185,56.0880327 138.505314,55.7373832 C138.552974,55.2355362 138.778567,54.7401232 139.150319,54.2768798 C140.99637,52.0571721 149.848515,48.7597801 152.676372,49.2487592 C153.658178,49.4289094 154.373086,49.9886618 154.674936,50.8250734" id="path1388" transform="translate(146.719697, 60.133333) scale(-1, 1) rotate(-180.000000) translate(-146.719697, -60.133333) "></path>
            <path d="M172.238917,46.6861939 C174.856282,47.7248414 180.564632,54.9519681 180.966585,57.7330631 C181.106801,58.7004005 180.801441,59.534419 180.13152,60.0676948 C179.692177,60.3963415 179.358774,60.5234595 168.995253,63.9091405 C168.995253,63.9091405 164.449138,65.4035527 164.389936,65.4314567 C163.290019,65.856217 162.034307,65.4624611 161.189895,64.426914 C160.311208,63.3634629 160.18034,61.9589634 160.88142,60.8986128 L162.71046,57.9345918 C168.861269,47.9945797 169.331771,47.2907798 169.774231,46.9466309 C170.459731,46.4102547 171.332187,46.3234424 172.238917,46.6861939" id="path1392" transform="translate(170.715909, 56.033333) scale(-1, 1) rotate(-180.000000) translate(-170.715909, -56.033333) "></path>
            <path d="M166.621571,21.452602 C178.970494,24.4005188 179.447463,24.5549948 179.934233,24.8703833 C180.682356,25.3659938 181.05805,26.1963023 180.992712,27.2068327 C180.992712,27.2390152 180.999246,27.274416 180.992712,27.3098167 C180.675822,30.2963526 175.363825,38.0652077 172.747029,39.3267617 C171.819226,39.7644437 170.891424,39.7354794 170.120433,39.2269959 C169.643464,38.9212622 169.293904,38.4578342 162.681677,29.5497186 C162.681677,29.5497186 159.69572,25.5429975 159.659784,25.5043785 C158.872459,24.5614313 158.859391,23.2097664 159.630382,22.0511964 C160.427508,20.8507892 161.773476,20.2650678 163.008368,20.602984 C163.008368,20.602984 162.959364,20.5160912 162.946297,20.5 C163.553942,20.7252775 164.641823,20.989174 166.621571,21.452602" id="path1396" transform="translate(170.030303, 30.066667) scale(-1, 1) rotate(-180.000000) translate(-170.030303, -30.066667) "></path>
            <path d="M154.931224,4.97679605 C154.720772,9.79718522 153.260558,31.2604668 153.088959,32.2547927 C152.842892,33.1558 152.133831,33.7993767 151.117186,34.0535895 C147.992782,34.8226636 136.052058,31.4985901 133.840693,29.2299824 C133.128394,28.4930871 132.866139,27.5856441 133.079828,26.7811732 C133.429502,26.070021 148.222661,2.93665804 148.222661,2.93665804 C150.408124,-0.586924163 152.19211,-0.0398840031 152.778138,0.143535345 C153.35769,0.320518926 155.131963,0.867559085 154.931224,4.97679605" id="path1400" transform="translate(143.977273, 17.083333) scale(-1, 1) rotate(-180.000000) translate(-143.977273, -17.083333) "></path>
            <path d="M5.82503971,36.9678984 C7.37153284,35.5659224 10.3020723,35.1685369 13.8629053,35.8774726 C17.1995617,36.5228266 19.2691334,37.9820262 21.2607306,44.1780608 L31.1797296,74.671834 C31.6930614,76.2899877 31.6540742,77.6951428 31.0660169,78.7378824 C30.5884234,79.5771605 29.7924343,80.1462166 28.6683028,80.4386923 C26.900882,80.9123758 24.6948551,80.8646895 23.3043108,76.2168688 L18.0995167,58.919473 C18.0995167,58.919473 7.49824131,78.5153465 7.49174344,78.5185256 C6.8224628,79.8283082 4.86010597,80.7661379 2.86201085,79.9904414 C0.256364854,79.0208208 -0.611100832,76.7287013 0.428558417,73.7753323 C0.428558417,73.7753323 13.323582,48.0978713 13.3528225,48.0279314 C13.3528225,48.0279314 13.7037075,47.1123553 13.7037075,46.9629383 C13.7037075,46.9629383 13.8206691,46.2667189 13.8206691,46.2412862 C13.7946776,45.2525911 13.4567884,44.4196711 12.8524864,43.8633315 C12.2579313,43.316529 11.4327018,43.0304115 10.467768,43.0685605 C10.467768,43.0685605 8.45667718,43.1130676 8.30397723,43.1130676 C6.23765447,42.8650991 4.93808041,41.7047335 4.73014856,39.9117301 C4.58394648,38.7577226 4.96407189,37.7435949 5.82503971,36.9678984" id="path1404" transform="translate(15.768939, 58.083333) scale(-1, 1) rotate(-180.000000) translate(-15.768939, -58.083333) "></path>
            <path d="M57.0945214,56.4779498 L43.450535,56.4779498 C43.0813447,56.7419025 42.9015651,57.1849658 43.1776552,58.5172982 C43.3510141,59.2180296 43.5372144,59.8464883 44.0829739,60.7263304 C44.2595431,60.990283 44.442533,61.2605203 44.6191023,61.5307575 C45.617521,62.7656788 46.9690783,63.5575367 48.5068358,63.9094735 C53.3030983,65.0564106 56.6482828,62.67141 57.1908319,58.6021401 C57.4508702,56.8267444 57.2807217,56.4779498 57.0945214,56.4779498 Z M64.1765422,58.8032469 C63.7367243,63.1584654 62.0191872,66.5584268 59.2037104,68.6417673 C56.2052438,70.8696533 51.9611614,71.5798115 46.9369641,70.6999694 C40.6382579,69.6315897 36.8564659,65.2260944 35.9896714,57.9422585 C34.9238353,49.2349637 36.3877548,42.6738552 40.2369641,38.9628068 C43.1391203,36.1567389 47.4313579,35.0412248 52.6513866,35.7325293 C60.0961877,36.7569169 63.4445824,40.7570563 63.4445824,43.2866024 C63.4445824,45.1468401 62.2952772,46.6111488 60.6066333,46.8342516 C59.640318,47.0227892 58.8248892,46.8342516 57.0206726,45.2536781 C54.4202893,43.035219 51.4057709,42.1428077 48.7347599,42.8058316 C46.6993982,43.3117408 45.1102751,44.684923 44.3911567,46.5671567 C44.3911567,46.5671567 44.0701217,47.8115048 44.0893838,47.6732439 C43.8710801,48.7950426 43.7715592,49.9074145 44.4778362,50.3599047 L44.6672468,50.4855964 L61.0207684,50.4855964 C62.5296328,50.4855964 63.293696,50.6772763 63.7335139,51.1423358 C64.6324119,52.119589 64.5617842,54.9099454 64.1765422,58.8032469 L64.1765422,58.8032469 Z" id="path1408" transform="translate(50.049242, 53.300000) scale(-1, 1) rotate(-180.000000) translate(-50.049242, -53.300000) "></path>
            <path d="M78.605915,72.1177578 C77.2786168,72.6466404 75.7800543,72.5047451 74.4659303,71.7372203 C73.2012095,71.0051694 72.6742424,69.8893562 72.6742424,67.8737975 L72.6742424,28.7042368 C72.6742424,28.7042368 72.8949099,27.3046329 72.9179647,27.2433599 C73.2012095,26.266217 73.9389633,25.4341944 74.9632555,24.9794844 C76.0995281,24.4635014 77.4103586,24.4731761 78.5828602,25.0117333 C80.0419002,25.630913 80.9015152,27.0595409 80.9015152,28.8300077 L80.9015152,68.0737409 C80.9015152,68.0737409 80.6479123,69.9699785 80.6479123,70.0054523 C80.4140707,70.9148724 79.6466749,71.7017465 78.605915,72.1177578" id="path1412" transform="translate(76.787879, 48.516667) scale(-1, 1) rotate(-180.000000) translate(-76.787879, -48.516667) "></path>
            <path d="M106.007744,53.4457055 C100.724361,53.4457055 99.8825378,58.1505335 99.7160578,61.702001 C99.7066345,61.7114548 99.646953,63.7818312 99.646953,63.7818312 C99.646953,63.7818312 99.7066345,65.319645 99.7066345,65.3795189 C100.049018,71.5244717 101.314894,73.9477889 104.547118,74.6221581 C106.717639,75.1263594 108.376156,74.8805613 109.620044,73.87531 C111.489017,72.3658575 112.311994,69.1704821 112.236607,63.8385538 C112.183207,57.5959121 111.099517,53.4457055 106.007744,53.4457055 Z M108.951004,81.5486228 C105.41095,82.2734121 102.382899,81.6652194 99.4710706,79.6862295 C99.4710706,79.6862295 99.1443929,79.4215238 99.0187477,79.3458936 L98.7580338,79.2135408 L97.9601865,78.8542974 L97.7340251,79.7524059 L97.5424161,80.0769854 L97.4764523,80.2786659 L97.4544644,80.3385398 C97.4544644,80.3385398 97.2597143,80.6000942 97.2314441,80.6410606 C96.3959032,81.9456813 94.1248654,82.5444203 92.0768478,81.3721524 C91.074827,80.8017747 90.5,79.998204 90.5,77.6000968 L90.5,40.0339522 C90.5,37.9761808 91.1439319,36.6967702 92.5511586,36.022401 C93.7385062,35.423662 95.073487,35.3763931 96.2199998,35.8711406 C97.1937505,36.2997117 97.9099284,37.0560135 98.1769245,37.9761808 L98.4125094,39.5864736 L98.4125094,46.0875185 L98.3434045,47.1337361 L98.3716747,47.4425593 L98.4125094,47.5906685 L98.7988685,48.8291128 L99.9705104,48.0476009 C99.9705104,48.0476009 100.265777,47.8522229 100.391422,47.71987 L100.743229,47.486677 C100.74637,47.4835257 101.151576,47.2471814 101.151576,47.2471814 C101.157858,47.2471814 101.528511,47.0644084 101.528511,47.0644084 C104.669643,45.5770147 108.872476,45.7503339 112.255474,47.499282 C116.514848,49.7303725 118.619406,53.6883524 119.106281,60.3343551 C120.124008,73.6169069 117.077111,79.9635401 108.951004,81.5486228 L108.951004,81.5486228 Z" id="path1416" transform="translate(104.897727, 58.766667) scale(-1, 1) rotate(-180.000000) translate(-104.897727, -58.766667) "></path>
        </g>
    </g>
</svg>