<?xml version="1.0" encoding="UTF-8"?>
<svg width="373px" height="124px" viewBox="0 0 373 124" version="1.1" xmlns="http://www.w3.org/2000/svg" xmlns:xlink="http://www.w3.org/1999/xlink">
    <!-- Generator: Sketch 47 (45396) - http://www.bohemiancoding.com/sketch -->
    <title>Group</title>
    <desc>Created with Sketch.</desc>
    <defs></defs>
    <g id="Page-1" stroke="none" stroke-width="1" fill="none" fill-rule="evenodd">
        <g id="Artboard" transform="translate(-528.000000, -292.000000)">
            <g id="Group" transform="translate(528.000000, 287.000000)">
                <g id="Group-16" transform="translate(0.000000, 6.142857)">
                    <polygon id="Path-8" fill="#F25F3F" points="60.6941803 5.17788725 60.6941803 15.7686508 17.8191123 41.1838481 17.8191123 81.6124033 8.96368792 86.7538301 8.96368792 35.9344617"></polygon>
                    <polygon id="Path-9" fill="#FFAA5B" points="60.5625858 5.2447832 51.6627093 0 0.0914662032 30.4948109 8.99207671 36.0348394"></polygon>
                    <polygon id="Path-9" fill="#FFAA5B" points="102.934075 81.5210285 94.1317724 76.350301 51.4611398 101.190835 17.8610762 81.5210285 8.93126689 86.7760326 42.5605293 106.845112 51.4611398 112.38514"></polygon>
                    <polygon id="Path-9" fill="#FFAA5B" points="103.417212 30.697684 94.28596 25.607006 42.7147169 56.1018169 51.6153274 61.6418454"></polygon>
                    <polygon id="Path-10" fill="#EB1919" points="0 30.5024631 9.01339017 35.856557 9.01339017 86.7353443 51.9729583 112.076378 51.9729583 122.821033 0 91.7571187"></polygon>
                    <polyline id="Path-11" fill="#EB1919" points="85.6123662 41.423098 85.6123662 81.4416626 94.6362359 86.5820859 94.6362359 43.3584612 85.6123662 41.423098"></polyline>
                    <polygon id="Path-8" fill="#F25F3F" transform="translate(77.543651, 76.750527) rotate(-180.000000) translate(-77.543651, -76.750527) " points="103.408897 30.6724868 103.408897 41.2632503 60.5338293 66.9223516 60.5338293 106.954484 103.408897 81.5003993 103.408897 92.0431194 51.6784048 122.828567 51.6784048 61.4290613"></polygon>
                    <polygon id="Path-12" fill="#EB1919" points="42.8976493 56.0153257 42.8976493 66.6513061 51.7248705 71.9437005 51.7248705 61.4145044"></polygon>
                </g>
                <g id="Group-3" transform="translate(138.000000, 0.000000)" fill="#000000">
                    <path d="M4.92993939,18.920912 L4.92993939,12.2416392 C4.92993939,11.3404675 5.15523232,10.6557539 5.60581818,10.1874978 C6.05640404,9.71924181 6.86480808,9.485114 8.0310303,9.485114 C8.89686209,9.485114 9.73618842,9.52045393 10.5490101,9.5911342 C11.3618318,9.66181447 12.1746531,9.78550443 12.9874747,9.96220491 L13.3585455,7.04664935 C12.5633939,6.83460895 11.7019798,6.68441353 10.774303,6.59606349 C9.84662626,6.50771346 9.02055205,6.46353824 8.29608081,6.46353824 C5.98130653,6.46353824 4.2849833,6.89645393 3.20711111,7.76228571 C2.12923892,8.6281175 1.59030303,9.97103979 1.59030303,11.7910534 L1.59030303,19.3184877 C1.59030303,21.0854912 2.11156916,22.415161 3.15410101,23.3074978 C4.19663286,24.1998347 5.80460606,24.6460029 7.9780202,24.6460029 C8.91453185,24.6460029 9.89963636,24.5797403 10.9333333,24.447215 C11.9670303,24.3146898 12.9521348,24.1159019 13.8886465,23.8508514 L13.8886465,16.0848716 L10.7345455,16.0848716 L10.7345455,21.4388918 C10.2751247,21.509572 9.82012121,21.5625821 9.36953535,21.5979221 C8.91894949,21.633262 8.46394599,21.6509322 8.00452525,21.6509322 C6.83830303,21.6509322 6.03431663,21.4123867 5.59256566,20.9352958 C5.15081468,20.4582049 4.92993939,19.7867438 4.92993939,18.920912 Z M23.5022222,14.1765079 L23.1841616,11.2079423 C22.9014409,11.2962923 22.5966328,11.4111478 22.2697374,11.5525079 C21.9428419,11.6938681 21.6291985,11.8440635 21.3288081,12.0030938 C21.0284176,12.1621241 20.7412793,12.3211544 20.4673939,12.4801847 C20.1935085,12.639215 19.9682156,12.7805751 19.7915151,12.9042655 L19.5794747,11.4729928 L16.8494545,11.4729928 L16.8494545,24.3809524 L20.0830707,24.3809524 L20.0830707,16.0583665 C20.6661818,15.6872958 21.2272055,15.351565 21.7661414,15.0511746 C22.3050773,14.7507842 22.8837712,14.4592286 23.5022222,14.1765079 Z M35.0241616,24.3809524 L32.3471515,24.3809524 L32.1351111,23.4797807 C31.5873399,23.8331812 30.9423838,24.1159019 30.2002424,24.3279423 C29.458101,24.5399827 28.7159596,24.6460029 27.9738182,24.6460029 C27.3376969,24.6460029 26.8031783,24.5444003 26.3702626,24.3411948 C25.9373469,24.1379893 25.5795287,23.855269 25.2968081,23.4930332 C25.0140874,23.1307974 24.8108823,22.7111342 24.6871919,22.2340433 C24.5635015,21.7569524 24.5016565,21.2356863 24.5016565,20.6702453 C24.5016565,19.362663 24.8064646,18.4084811 25.4160808,17.8076999 C26.0256969,17.2069186 27.0108015,16.9065281 28.3713939,16.9065281 L31.7905454,16.9065281 L31.7905454,15.8198211 C31.7905454,15.1660297 31.6359328,14.6801039 31.326707,14.3620433 C31.0174813,14.0439827 30.3946126,13.8849524 29.458101,13.8849524 C28.89266,13.8849524 28.2962964,13.9423801 27.6690101,14.0572352 C27.0417237,14.1720903 26.4718652,14.3178681 25.9594343,14.4945685 L25.5088485,11.8970736 C25.7915691,11.7910534 26.114047,11.6938681 26.4762828,11.605518 C26.8385186,11.517168 27.2184242,11.4420701 27.616,11.3802251 C28.0135757,11.3183801 28.4067338,11.2742049 28.7954747,11.2476999 C29.1842156,11.2211948 29.546451,11.2079423 29.8821818,11.2079423 C30.8540338,11.2079423 31.6712727,11.2918751 32.333899,11.4597403 C32.9965252,11.6276054 33.5266262,11.8970736 33.924202,12.2681443 C34.3217777,12.639215 34.6044984,13.1163059 34.7723636,13.699417 C34.9402288,14.2825281 35.0241616,14.9804943 35.0241616,15.793316 L35.0241616,24.3809524 Z M31.7905454,19.2389726 L29.0870303,19.2389726 C28.5569293,19.2389726 28.1814409,19.3361579 27.9605656,19.5305281 C27.7396903,19.7248984 27.6292525,20.0959691 27.6292525,20.6437403 C27.6292525,21.1385013 27.7264378,21.5272418 27.9208081,21.8099625 C28.1151783,22.0926832 28.486249,22.2340433 29.0340202,22.2340433 C29.5817914,22.2340433 30.1074747,22.1677807 30.6110707,22.0352554 C31.1146666,21.9027302 31.5078248,21.7657873 31.7905454,21.6244271 L31.7905454,19.2389726 Z M48.9315555,20.0871342 C48.9315555,21.5184069 48.5958247,22.6360367 47.9243636,23.4400231 C47.2529024,24.2440095 46.1661954,24.6460029 44.6642424,24.6460029 C44.0988014,24.6460029 43.5112727,24.610663 42.9016565,24.5399827 C42.2920404,24.4693024 41.7310167,24.3809524 41.2185858,24.2749322 L41.2185858,29.6024473 L37.9849697,30.0530332 L37.9849697,11.4729928 L40.5559596,11.4729928 L40.8740202,12.5596999 C41.4394611,12.1532892 42.0579125,11.8263933 42.7293737,11.579013 C43.4008348,11.3316327 44.1429763,11.2079423 44.9557979,11.2079423 C46.2633803,11.2079423 47.2529024,11.5834306 47.9243636,12.3344069 C48.5958247,13.0853832 48.9315555,14.203013 48.9315555,15.6872958 L48.9315555,20.0871342 Z M41.2185858,21.544912 C41.6426666,21.633262 42.1109227,21.7127772 42.6233535,21.7834574 C43.1357843,21.8541377 43.6217105,21.8894776 44.0811313,21.8894776 C44.6642424,21.8894776 45.0794883,21.7481175 45.3268686,21.4653968 C45.574249,21.1826762 45.6979394,20.7497605 45.6979394,20.1666494 L45.6979394,15.6077807 C45.6979394,15.0776797 45.5830843,14.671269 45.3533737,14.3885483 C45.1236631,14.1058277 44.7084176,13.9644675 44.1076363,13.9644675 C43.5775353,13.9644675 43.0518519,14.0793226 42.5305858,14.3090332 C42.0093197,14.5387438 41.5719864,14.8126291 41.2185858,15.1306898 L41.2185858,21.544912 Z M59.2607676,24.3809524 L62.4943838,24.3809524 L62.4943838,15.0246696 C62.4943838,13.8584473 62.2779257,12.9307706 61.84501,12.2416392 C61.4120944,11.5525079 60.6567004,11.2079423 59.5788282,11.2079423 C58.8896969,11.2079423 58.1122156,11.3227974 57.2463838,11.5525079 C56.380552,11.7822185 55.5854005,12.0826089 54.8609292,12.4536797 L54.8609292,5.74790188 L51.6273131,6.19848773 L51.6273131,24.3809524 L54.8609292,24.3809524 L54.8609292,15.4222453 C55.4440403,15.1218549 56.0492389,14.8656392 56.6765252,14.6535988 C57.3038115,14.4415584 57.82066,14.3355382 58.2270706,14.3355382 C58.5981414,14.3355382 58.8631919,14.419471 59.0222222,14.5873362 C59.1812525,14.7552014 59.2607676,15.0158347 59.2607676,15.3692352 L59.2607676,24.3809524 Z M68.2382221,19.8485887 C68.2382221,20.6437403 68.410505,21.204764 68.7550706,21.5316595 C69.0996363,21.8585549 69.7666802,22.0220029 70.7562019,22.0220029 C71.4983434,22.0220029 72.2316499,21.9601579 72.9561211,21.8364675 C73.6805924,21.7127772 74.2725388,21.571417 74.7319595,21.4123867 L75.2090504,23.8773564 C74.90866,24.0010468 74.5640943,24.1114842 74.1753535,24.2086696 C73.7866126,24.3058549 73.3802019,24.38537 72.9561211,24.447215 C72.5320403,24.50906 72.1079595,24.5576529 71.6838787,24.5929928 C71.2597979,24.6283327 70.8533873,24.6460029 70.4646464,24.6460029 C69.4574545,24.6460029 68.6048752,24.5311478 67.906909,24.3014372 C67.2089428,24.0717267 66.6435015,23.7448312 66.2105858,23.3207504 C65.7776701,22.8966696 65.4684444,22.3754034 65.282909,21.7569524 C65.0973737,21.1385013 65.004606,20.4405347 65.004606,19.6630534 L65.004606,16.2439019 C65.004606,15.5547706 65.0885388,14.9053968 65.256404,14.2957807 C65.4242692,13.6861645 65.7158247,13.1516458 66.1310706,12.6922251 C66.5463166,12.2328044 67.0940873,11.8705685 67.7743838,11.605518 C68.4546802,11.3404675 69.3160943,11.2079423 70.3586262,11.2079423 C71.3834883,11.2079423 72.2272323,11.3493024 72.8898585,11.6320231 C73.5524848,11.9147438 74.0693333,12.2946494 74.440404,12.7717403 C74.8114747,13.2488312 75.0676903,13.8010196 75.2090504,14.4283059 C75.3504106,15.0555922 75.4210908,15.7138009 75.4210908,16.4029322 L75.4210908,19.2919827 L68.2382221,19.2919827 L68.2382221,19.8485887 Z M68.2382221,16.827013 L72.346505,16.827013 L72.346505,15.766811 C72.346505,15.1660297 72.2051448,14.671269 71.9224242,14.2825281 C71.6397035,13.8937873 71.1096025,13.699417 70.3321211,13.699417 C69.5369696,13.699417 68.9891984,13.88937 68.688808,14.2692756 C68.3884176,14.6491812 68.2382221,15.1483599 68.2382221,15.766811 L68.2382221,16.827013 Z M85.4852524,24.3809524 L88.7188686,24.3809524 L88.7188686,15.0246696 C88.7188686,13.8584473 88.5024106,12.9307706 88.0694949,12.2416392 C87.6365792,11.5525079 86.8811852,11.2079423 85.803313,11.2079423 C85.0435015,11.2079423 84.1953398,11.3316327 83.2588282,11.579013 C82.3223165,11.8263933 81.4476499,12.1532892 80.6348282,12.5596999 L80.3167676,11.4729928 L77.8517979,11.4729928 L77.8517979,24.3809524 L81.0854141,24.3809524 L81.0854141,15.4222453 C81.6685252,15.1218549 82.2737237,14.8656392 82.90101,14.6535988 C83.5282963,14.4415584 84.0451448,14.3355382 84.4515555,14.3355382 C84.8226262,14.3355382 85.0876767,14.419471 85.246707,14.5873362 C85.4057373,14.7552014 85.4852524,15.0158347 85.4852524,15.3692352 L85.4852524,24.3809524 Z M94.462707,19.8485887 C94.462707,20.6437403 94.6349898,21.204764 94.9795555,21.5316595 C95.3241211,21.8585549 95.991165,22.0220029 96.9806868,22.0220029 C97.7228282,22.0220029 98.4561347,21.9601579 99.180606,21.8364675 C99.9050772,21.7127772 100.497024,21.571417 100.956444,21.4123867 L101.433535,23.8773564 C101.133145,24.0010468 100.788579,24.1114842 100.399838,24.2086696 C100.011097,24.3058549 99.6046868,24.38537 99.180606,24.447215 C98.7565252,24.50906 98.3324443,24.5576529 97.9083635,24.5929928 C97.4842827,24.6283327 97.0778721,24.6460029 96.6891312,24.6460029 C95.6819393,24.6460029 94.82936,24.5311478 94.1313938,24.3014372 C93.4334276,24.0717267 92.8679863,23.7448312 92.4350706,23.3207504 C92.0021549,22.8966696 91.6929292,22.3754034 91.5073938,21.7569524 C91.3218585,21.1385013 91.2290908,20.4405347 91.2290908,19.6630534 L91.2290908,16.2439019 C91.2290908,15.5547706 91.3130236,14.9053968 91.4808888,14.2957807 C91.648754,13.6861645 91.9403095,13.1516458 92.3555555,12.6922251 C92.7708014,12.2328044 93.3185722,11.8705685 93.9988686,11.605518 C94.679165,11.3404675 95.5405792,11.2079423 96.583111,11.2079423 C97.6079731,11.2079423 98.4517171,11.3493024 99.1143433,11.6320231 C99.7769696,11.9147438 100.293818,12.2946494 100.664889,12.7717403 C101.035959,13.2488312 101.292175,13.8010196 101.433535,14.4283059 C101.574895,15.0555922 101.645576,15.7138009 101.645576,16.4029322 L101.645576,19.2919827 L94.462707,19.2919827 L94.462707,19.8485887 Z M94.462707,16.827013 L98.5709898,16.827013 L98.5709898,15.766811 C98.5709898,15.1660297 98.4296297,14.671269 98.146909,14.2825281 C97.8641883,13.8937873 97.3340873,13.699417 96.556606,13.699417 C95.7614544,13.699417 95.2136833,13.88937 94.9132928,14.2692756 C94.6129024,14.6491812 94.462707,15.1483599 94.462707,15.766811 L94.462707,16.827013 Z" id="Graphene"></path>
                </g>
                <g id="Group-3" transform="translate(135.000000, 18.404762)" fill="#000000">
                    <path d="M6.15,19.5665714 L27.47,19.5665714 C33.7566671,19.5665714 38.212,20.8239043 40.836,23.3385714 C43.46,25.8532385 44.772,29.5159043 44.772,34.3265714 L44.772,41.7885714 C44.772,46.5445714 43.3916671,50.1799043 40.631,52.6945714 C37.8703329,55.2092385 33.3193329,56.4665714 26.978,56.4665714 L16.482,56.4665714 L16.482,74.1785714 L6.15,74.1785714 L6.15,19.5665714 Z M34.44,35.1465714 C34.44,32.8505714 33.8933329,31.1969043 32.8,30.1855714 C31.7066671,29.1742385 29.7386671,28.6685714 26.896,28.6685714 L16.482,28.6685714 L16.482,47.3645714 L26.896,47.3645714 C29.7933329,47.3645714 31.775,46.8179043 32.841,45.7245714 C33.907,44.6312385 34.44,42.9639043 34.44,40.7225714 L34.44,35.1465714 Z M73.366,74.1785714 L86.158,34.2445714 L75.908,34.2445714 L66.724,64.5845714 L57.622,34.2445714 L47.372,34.2445714 L60,74.1785714 L63.526,74.1785714 L58.524,90.3325714 L68.036,90.3325714 L73.366,74.1785714 Z M113.276,73.4405714 L112.128,65.8145714 C111.253333,66.0879043 110.392333,66.2929043 109.545,66.4295714 C108.697667,66.5662385 107.891333,66.6345714 107.126,66.6345714 C105.814,66.6345714 104.884667,66.3202385 104.338,65.6915714 C103.791333,65.0629043 103.518,64.2019043 103.518,63.1085714 L103.518,42.1985714 L113.112,42.1985714 L113.768,34.2445714 L103.518,34.2445714 L103.518,22.9285714 L93.514,24.3225714 L93.514,34.2445714 L87.528,34.2445714 L87.528,42.1985714 L93.514,42.1985714 L93.514,64.4205714 C93.514,71.4725714 97.1766671,74.9985714 104.502,74.9985714 C105.158,74.9985714 105.882333,74.9575714 106.675,74.8755714 C107.467667,74.7935714 108.260333,74.6842385 109.053,74.5475714 C109.845667,74.4109043 110.611,74.2469043 111.349,74.0555714 C112.087,73.8642385 112.729333,73.6592385 113.276,73.4405714 Z M143.264,74.1785714 L153.268,74.1785714 L153.268,45.2325714 C153.268,41.6245714 152.598333,38.7545714 151.259,36.6225714 C149.919667,34.4905714 147.582667,33.4245714 144.248,33.4245714 C142.116,33.4245714 139.710667,33.7799043 137.032,34.4905714 C134.353333,35.2012385 131.893333,36.1305714 129.652,37.2785714 L129.652,16.5325714 L119.648,17.9265714 L119.648,74.1785714 L129.652,74.1785714 L129.652,46.4625714 C131.456,45.5332385 133.328333,44.7405714 135.269,44.0845714 C137.209667,43.4285714 138.808667,43.1005714 140.066,43.1005714 C141.214,43.1005714 142.034,43.3602385 142.526,43.8795714 C143.018,44.3989043 143.264,45.2052385 143.264,46.2985714 L143.264,74.1785714 Z M195.802,59.2545714 C195.802,61.3319043 195.542333,63.3135714 195.023,65.1995714 C194.503667,67.0855714 193.588,68.7529043 192.276,70.2015714 C190.964,71.6502385 189.187333,72.8119043 186.946,73.6865714 C184.704667,74.5612385 181.862,74.9985714 178.418,74.9985714 C174.974,74.9985714 172.131333,74.5612385 169.89,73.6865714 C167.648667,72.8119043 165.872,71.6502385 164.56,70.2015714 C163.248,68.7529043 162.332333,67.0855714 161.813,65.1995714 C161.293667,63.3135714 161.034,61.3319043 161.034,59.2545714 L161.034,49.1685714 C161.034,47.1459043 161.293667,45.1779043 161.813,43.2645714 C162.332333,41.3512385 163.248,39.6702385 164.56,38.2215714 C165.872,36.7729043 167.648667,35.6112385 169.89,34.7365714 C172.131333,33.8619043 174.974,33.4245714 178.418,33.4245714 C181.862,33.4245714 184.704667,33.8619043 186.946,34.7365714 C189.187333,35.6112385 190.964,36.7729043 192.276,38.2215714 C193.588,39.6702385 194.503667,41.3512385 195.023,43.2645714 C195.542333,45.1779043 195.802,47.1459043 195.802,49.1685714 L195.802,59.2545714 Z M185.798,48.8405714 C185.798,46.5445714 185.237667,44.8225714 184.117,43.6745714 C182.996333,42.5265714 181.096667,41.9525714 178.418,41.9525714 C175.739333,41.9525714 173.839667,42.5265714 172.719,43.6745714 C171.598333,44.8225714 171.038,46.5445714 171.038,48.8405714 L171.038,59.5825714 C171.038,61.8785714 171.598333,63.6005714 172.719,64.7485714 C173.839667,65.8965714 175.739333,66.4705714 178.418,66.4705714 C181.096667,66.4705714 182.996333,65.8965714 184.117,64.7485714 C185.237667,63.6005714 185.798,61.8785714 185.798,59.5825714 L185.798,48.8405714 Z M227.594,74.1785714 L237.598,74.1785714 L237.598,45.2325714 C237.598,41.6245714 236.928333,38.7545714 235.589,36.6225714 C234.249667,34.4905714 231.912667,33.4245714 228.578,33.4245714 C226.227333,33.4245714 223.603333,33.8072385 220.706,34.5725714 C217.808667,35.3379043 215.102667,36.3492385 212.588,37.6065714 L211.604,34.2445714 L203.978,34.2445714 L203.978,74.1785714 L213.982,74.1785714 L213.982,46.4625714 C215.786,45.5332385 217.658333,44.7405714 219.599,44.0845714 C221.539667,43.4285714 223.138667,43.1005714 224.396,43.1005714 C225.544,43.1005714 226.364,43.3602385 226.856,43.8795714 C227.348,44.3989043 227.594,45.2052385 227.594,46.2985714 L227.594,74.1785714 Z" id="Python"></path>
                </g>
            </g>
        </g>
    </g>
</svg>