<?xml version="1.0" encoding="UTF-8"?>
<svg width="233px" height="201px" viewBox="0 0 233 201" version="1.1" xmlns="http://www.w3.org/2000/svg" xmlns:xlink="http://www.w3.org/1999/xlink">
    <!-- Generator: Sketch 47 (45396) - http://www.bohemiancoding.com/sketch -->
    <title>puzzle</title>
    <desc>Created with Sketch.</desc>
    <defs></defs>
    <g id="Page-1" stroke="none" stroke-width="1" fill="none" fill-rule="evenodd">
        <g id="Artboard" transform="translate(-284.000000, -1801.000000)">
            <g id="puzzle" transform="translate(284.000000, 1804.000000)">
                <path d="M121.024447,33.6804124 L82.0488943,33.6804124 L82.0488943,62.6377351 C82.0096888,63.6599462 81.5612761,64.3652382 80.8694628,64.7031731 C80.15723,65.0511956 79.3134955,64.9461164 78.7025435,64.4316483 C76.133768,62.2712187 73.0242837,61.117028 69.7081538,61.0926496 C61.8605243,61.1481315 55.4528792,67.7891409 55.4528792,75.8962161 C55.4528792,83.9755504 61.8368376,90.6165598 69.6844671,90.6989419 C72.9924292,90.687173 76.1206995,89.5329824 78.7025435,87.3599433 C79.3134955,86.8454752 80.15723,86.740396 80.8694628,87.0884185 C81.5620929,87.4255127 82.0105056,88.1341673 82.0358258,88.9193195 C82.041271,88.9708784 82.0456271,97.1866757 82.0488943,113.566711 L102.338545,113.566711 C101.148496,111.036403 100.525292,108.263991 100.516307,105.38566 C100.51549,94.7205354 108.800098,86.1948244 118.982903,86.1948244 C129.165709,86.1948244 137.450316,94.7213761 137.450316,105.201561 C137.4495,108.2228 136.827113,111.017909 135.627262,113.568393 L160,113.568393 L160,198 L0,198 L0,33.6804124 L121.024447,33.6804124 Z M82.0480775,193.79683 L155.916096,193.79683 L155.916096,118.11286 L131.701813,118.11286 C130.912803,118.11286 130.194853,117.644627 129.856706,116.911594 C129.560214,116.267669 129.602687,115.520345 129.954719,114.922654 C130.02823,114.725105 130.130327,114.536803 130.261829,114.366154 C132.280911,111.739173 133.353344,108.588476 133.364779,105.254521 C133.337825,97.1348366 126.88444,90.517365 118.98127,90.517365 C111.050329,90.517365 104.598577,97.1583743 104.598577,105.320931 C104.632065,108.652364 105.704499,111.766914 107.700711,114.366154 C107.831396,114.535962 107.933493,114.723424 108.006187,114.918451 C108.36067,115.517823 108.403959,116.266828 108.106651,116.911594 C107.76932,117.644627 107.050553,118.11286 106.261543,118.11286 L82.0472607,118.11286 L82.0472607,138.711758 C84.5539608,137.438198 87.3048784,136.777459 90.1636111,136.777459 L90.2918457,136.7783 L90.3923097,136.777459 C100.575932,136.777459 108.859723,145.304011 108.859723,155.784196 C108.859723,166.264382 100.575115,174.790933 90.3923097,174.790933 L90.2640751,174.790093 L90.1636111,174.790933 C87.3056952,174.790933 84.5547776,174.130195 82.0472607,172.855794 L82.0472607,193.79683 L82.0480775,193.79683 Z M4.08390379,193.79683 L77.951922,193.79683 L77.951922,169.043518 C77.951922,168.962817 77.9568227,168.883797 77.9658072,168.804778 C77.9911275,168.021307 78.4395401,167.316015 79.1313534,166.97808 C79.8435862,166.630057 80.6873207,166.735977 81.2982727,167.249605 C83.8670482,169.410034 86.9765326,170.564225 90.2926624,170.588603 C98.140292,170.533122 104.547937,163.892112 104.547937,155.785037 C104.547937,147.677962 98.140292,141.036952 90.2648919,140.98147 C86.9773494,141.005008 83.8670482,142.159199 81.2982727,144.320469 C80.6873207,144.834937 79.8435862,144.940016 79.1313534,144.591994 C78.4387233,144.2549 77.9911275,143.547086 77.9649905,142.762774 C77.9568227,142.684595 77.951922,142.605576 77.951922,142.526556 L77.951922,118.113701 L57.6630879,118.113701 C58.8629389,120.663344 59.4853258,123.458453 59.4853258,126.361162 L59.4853258,126.480532 C59.4853258,136.960718 51.2007186,145.486429 41.0179129,145.486429 C30.8351072,145.486429 22.5513167,136.959877 22.5513167,126.480532 L22.5513167,126.361162 C22.5513167,123.459293 23.1745204,120.664185 24.3735546,118.113701 L4.08390379,118.113701 L4.08390379,193.79683 Z M30.0444634,116.758599 C29.9709531,116.956148 29.8688555,117.14445 29.7373538,117.315099 C27.7182718,119.94208 26.6458387,123.092777 26.6344037,126.426732 C26.6613575,134.546416 33.1147423,141.163888 41.0170961,141.163888 C48.9210835,141.163888 55.3736515,134.546416 55.4006052,126.412441 C55.3891703,123.092777 54.3167372,119.94208 52.2976552,117.315099 C52.1661534,117.14445 52.0640559,116.956148 51.9905456,116.758599 C51.6385131,116.160908 51.5960405,115.412744 51.8925319,114.769659 C52.2306791,114.036626 52.9486294,113.568393 53.7376396,113.568393 L77.951922,113.568393 L77.951922,92.9694946 C75.4452218,94.2430553 72.6934875,94.9046343 69.8347548,94.9046343 L69.6419945,94.9037937 C59.4232505,94.9037937 51.13946,86.377242 51.13946,75.8978974 C51.13946,65.4168714 59.4240673,56.8911604 69.606873,56.8911604 L69.7342908,56.8920011 L69.8347548,56.8911604 C72.6934875,56.8911604 75.444405,57.5518988 77.951922,58.8263001 L77.951922,37.8835829 L4.08390379,37.8835829 L4.08390379,113.567552 L28.2981861,113.567552 C29.0871964,113.567552 29.8051466,114.035785 30.1432939,114.768818 C30.4397853,115.412744 30.3964959,116.160908 30.0444634,116.758599 Z" id="Shape" fill="#000000" fill-rule="nonzero"></path>
                <path d="M165.9995,89.2054547 L181.832181,102.061856 L230,46.8059738 L172.358358,0 L156.60416,18.072484 C155.923004,18.7939365 155.124227,19.0247216 154.369311,18.8330779 C153.592042,18.6358602 153.000523,18.0245174 152.851198,17.2617895 C152.221653,14.0568181 150.529778,11.243864 147.957608,9.1248224 C141.798535,4.19273077 132.571924,4.98103026 127.412367,10.8998348 C122.270464,16.7983862 123.025562,25.6919993 129.096895,30.7247425 C131.685697,32.8122183 134.861346,33.9517756 138.259024,34.0012537 C139.063191,34.012777 139.78846,34.4706876 140.122748,35.176073 C140.448694,35.8610588 140.347599,36.6625662 139.867665,37.2518333 C139.839101,37.2929256 134.613749,43.293866 124.191609,55.2546544 L140.024291,68.1110555 C140.706011,65.5096636 141.984141,63.0906958 143.808976,60.983594 C150.595907,53.196694 162.486647,52.2217381 170.432625,58.6740045 C178.378602,65.126271 179.41683,76.6008121 172.746962,84.2521742 C170.823529,86.4573994 168.558979,88.1036777 165.9995,89.2054547 Z" id="Path" stroke="#ABABAB" stroke-width="4" fill="#FCFCFC"></path>
            </g>
        </g>
    </g>
</svg>