<?xml version="1.0" encoding="UTF-8"?>
<svg width="99px" height="25px" viewBox="0 0 99 25" version="1.1" xmlns="http://www.w3.org/2000/svg" xmlns:xlink="http://www.w3.org/1999/xlink">
    <!-- Generator: Sketch 47 (45396) - http://www.bohemiancoding.com/sketch -->
    <title>graphene-logo</title>
    <desc>Created with Sketch.</desc>
    <defs></defs>
    <g id="Page-1" stroke="none" stroke-width="1" fill="none" fill-rule="evenodd">
        <g id="Artboard" transform="translate(-140.000000, -12.000000)" fill="#FFFFFF">
            <g id="Group-9">
                <g id="graphene-logo" transform="translate(140.000000, 12.000000)">
                    <path d="M30.794,14.292 L30.794,9.756 C30.794,9.144 30.947,8.67900009 31.253,8.361 C31.559,8.04299991 32.108,7.884 32.9,7.884 C33.4880001,7.884 34.0579999,7.90799991 34.61,7.956 C35.1620001,8.00400009 35.7139999,8.08799991 36.266,8.208 L36.518,6.228 C35.978,6.084 35.393,5.98199991 34.763,5.922 C34.133,5.86200009 33.5719999,5.832 33.08,5.832 C31.5080001,5.832 30.3560001,6.12599991 29.624,6.714 C28.8919999,7.30200009 28.526,8.21399991 28.526,9.45 L28.526,14.562 C28.526,15.7620001 28.8800001,16.6649999 29.588,17.271 C30.2959999,17.8770001 31.388,18.18 32.864,18.18 C33.4999999,18.18 34.169,18.135 34.871,18.045 C35.573,17.955 36.2420001,17.82 36.878,17.64 L36.878,12.366 L34.736,12.366 L34.736,16.002 C34.4240001,16.0500001 34.115,16.0860001 33.809,16.11 C33.503,16.1339999 33.1939999,16.146 32.882,16.146 C32.09,16.146 31.5440001,15.984 31.244,15.66 C30.9439999,15.336 30.794,14.8800001 30.794,14.292 Z M43.736,11.07 L43.52,9.054 C43.3279999,9.11399991 43.1209999,9.19200009 42.899,9.288 C42.6770001,9.38399991 42.4639999,9.486 42.26,9.594 C42.0560001,9.702 41.8609999,9.81 41.675,9.918 C41.4890001,10.026 41.3360001,10.1219999 41.216,10.206 L41.072,9.234 L39.218,9.234 L39.218,18 L41.414,18 L41.414,12.348 C41.81,12.096 42.1910001,11.8679999 42.557,11.664 C42.9229999,11.4600001 43.3160001,11.2620001 43.736,11.07 Z M51.944,18 L50.126,18 L49.982,17.388 C49.6099999,17.6279999 49.172,17.82 48.668,17.964 C48.164,18.108 47.66,18.18 47.156,18.18 C46.724,18.18 46.3609999,18.1110001 46.067,17.973 C45.7730001,17.8349999 45.5300001,17.6430001 45.338,17.397 C45.1459999,17.1509999 45.0080001,16.866 44.924,16.542 C44.8399999,16.218 44.798,15.8639999 44.798,15.48 C44.798,14.5920001 45.005,13.9440001 45.419,13.536 C45.833,13.1279999 46.5020001,12.924 47.426,12.924 L49.748,12.924 L49.748,12.186 C49.748,11.7419999 49.6430001,11.412 49.433,11.196 C49.2229999,10.98 48.7999999,10.872 48.164,10.872 C47.7800001,10.872 47.3750001,10.9110001 46.949,10.989 C46.5229999,11.0669999 46.1359999,11.1659999 45.788,11.286 L45.482,9.522 C45.6740001,9.45 45.8929999,9.38399991 46.139,9.324 C46.3850001,9.26400009 46.643,9.21299991 46.913,9.171 C47.183,9.12900009 47.4499999,9.099 47.714,9.081 C47.9780001,9.063 48.2239999,9.054 48.452,9.054 C49.1120001,9.054 49.667,9.11100009 50.117,9.225 C50.567,9.33899991 50.927,9.522 51.197,9.774 C51.467,10.026 51.6590001,10.35 51.773,10.746 C51.8869999,11.142 51.944,11.6159999 51.944,12.168 L51.944,18 Z M49.748,14.508 L47.912,14.508 C47.552,14.508 47.2969999,14.5740001 47.147,14.706 C46.9970001,14.8379999 46.922,15.0899999 46.922,15.462 C46.922,15.7980001 46.9880001,16.0619999 47.12,16.254 C47.2519999,16.4460001 47.5039999,16.542 47.876,16.542 C48.2480001,16.542 48.605,16.497 48.947,16.407 C49.289,16.317 49.5559999,16.2239999 49.748,16.128 L49.748,14.508 Z M61.718,15.084 C61.718,16.056 61.4899999,16.8150001 61.034,17.361 C60.5780001,17.9069999 59.8400001,18.18 58.82,18.18 C58.4360001,18.18 58.037,18.1560001 57.623,18.108 C57.209,18.0599999 56.8279999,18 56.48,17.928 L56.48,21.546 L54.284,21.852 L54.284,9.234 L56.03,9.234 L56.246,9.972 C56.6299999,9.69600009 57.0500001,9.47399991 57.506,9.306 C57.9619999,9.13800009 58.4659999,9.054 59.018,9.054 C59.9059999,9.054 60.5780001,9.30900009 61.034,9.819 C61.4899999,10.3289999 61.718,11.088 61.718,12.096 L61.718,15.084 Z M56.48,16.074 C56.768,16.1339999 57.0860001,16.1879999 57.434,16.236 C57.7819999,16.2840001 58.1120001,16.308 58.424,16.308 C58.82,16.308 59.1020001,16.2120001 59.27,16.02 C59.4379999,15.8279999 59.522,15.534 59.522,15.138 L59.522,12.042 C59.522,11.682 59.4440001,11.4060001 59.288,11.214 C59.1319999,11.0219999 58.8500001,10.926 58.442,10.926 C58.082,10.926 57.7250001,11.0039999 57.371,11.16 C57.0169999,11.3160001 56.7199999,11.502 56.48,11.718 L56.48,16.074 Z M69.062,18 L71.258,18 L71.258,11.646 C71.258,10.854 71.1109999,10.224 70.817,9.756 C70.5230001,9.288 70.0100001,9.054 69.278,9.054 C68.81,9.054 68.2820001,9.13199991 67.694,9.288 C67.1059999,9.44400009 66.5659999,9.648 66.074,9.9 L66.074,5.346 L63.878,5.652 L63.878,18 L66.074,18 L66.074,11.916 C66.47,11.7120001 66.8809999,11.538 67.307,11.394 C67.7330001,11.25 68.0840001,11.178 68.36,11.178 C68.612,11.178 68.792,11.2350001 68.9,11.349 C69.008,11.4629999 69.062,11.6400001 69.062,11.88 L69.062,18 Z M75.488,14.922 C75.488,15.462 75.605,15.8430001 75.839,16.065 C76.073,16.2869999 76.5260001,16.398 77.198,16.398 C77.702,16.398 78.2000001,16.3560001 78.692,16.272 C79.1839999,16.1879999 79.5860001,16.092 79.898,15.984 L80.222,17.658 C80.0180001,17.7420001 79.7840001,17.8169999 79.52,17.883 C79.2559999,17.9490001 78.98,18.0030001 78.692,18.045 C78.404,18.0869999 78.116,18.1200001 77.828,18.144 C77.54,18.1679999 77.2640001,18.18 77,18.18 C76.316,18.18 75.7369999,18.1020001 75.263,17.946 C74.7890001,17.7899999 74.4049999,17.568 74.111,17.28 C73.8170001,16.992 73.607,16.6379999 73.481,16.218 C73.355,15.7980001 73.292,15.3239999 73.292,14.796 L73.292,12.474 C73.292,12.006 73.3490001,11.565 73.463,11.151 C73.5769999,10.737 73.7749999,10.3739999 74.057,10.062 C74.3390001,9.75000009 74.7109999,9.504 75.173,9.324 C75.6350001,9.144 76.2200001,9.054 76.928,9.054 C77.6240001,9.054 78.197,9.14999991 78.647,9.342 C79.097,9.53400009 79.448,9.792 79.7,10.116 C79.952,10.44 80.1260001,10.8149999 80.222,11.241 C80.3179999,11.6670001 80.366,12.114 80.366,12.582 L80.366,14.544 L75.488,14.544 L75.488,14.922 Z M75.488,12.87 L78.278,12.87 L78.278,12.15 C78.278,11.7419999 78.1820001,11.4060001 77.99,11.142 C77.7979999,10.8779999 77.4379999,10.746 76.91,10.746 C76.37,10.746 75.9979999,10.8750001 75.794,11.133 C75.5900001,11.3909999 75.488,11.7300001 75.488,12.15 L75.488,12.87 Z M87.53,18 L89.726,18 L89.726,11.646 C89.726,10.854 89.5789999,10.224 89.285,9.756 C88.9910001,9.288 88.4780001,9.054 87.746,9.054 C87.2299999,9.054 86.6539999,9.13800009 86.018,9.306 C85.3820001,9.47399991 84.7880001,9.69600009 84.236,9.972 L84.02,9.234 L82.346,9.234 L82.346,18 L84.542,18 L84.542,11.916 C84.938,11.7120001 85.3489999,11.538 85.775,11.394 C86.2010001,11.25 86.5520001,11.178 86.828,11.178 C87.08,11.178 87.26,11.2350001 87.368,11.349 C87.476,11.4629999 87.53,11.6400001 87.53,11.88 L87.53,18 Z M93.956,14.922 C93.956,15.462 94.073,15.8430001 94.307,16.065 C94.541,16.2869999 94.9940001,16.398 95.666,16.398 C96.17,16.398 96.6680001,16.3560001 97.16,16.272 C97.6519999,16.1879999 98.0540001,16.092 98.366,15.984 L98.69,17.658 C98.4860001,17.7420001 98.2520001,17.8169999 97.988,17.883 C97.7239999,17.9490001 97.448,18.0030001 97.16,18.045 C96.872,18.0869999 96.584,18.1200001 96.296,18.144 C96.008,18.1679999 95.7320001,18.18 95.468,18.18 C94.784,18.18 94.2049999,18.1020001 93.731,17.946 C93.2570001,17.7899999 92.8729999,17.568 92.579,17.28 C92.2850001,16.992 92.075,16.6379999 91.949,16.218 C91.823,15.7980001 91.76,15.3239999 91.76,14.796 L91.76,12.474 C91.76,12.006 91.8170001,11.565 91.931,11.151 C92.0449999,10.737 92.2429999,10.3739999 92.525,10.062 C92.8070001,9.75000009 93.1789999,9.504 93.641,9.324 C94.1030001,9.144 94.6880001,9.054 95.396,9.054 C96.0920001,9.054 96.665,9.14999991 97.115,9.342 C97.565,9.53400009 97.916,9.792 98.168,10.116 C98.42,10.44 98.5940001,10.8149999 98.69,11.241 C98.7859999,11.6670001 98.834,12.114 98.834,12.582 L98.834,14.544 L93.956,14.544 L93.956,14.922 Z M93.956,12.87 L96.746,12.87 L96.746,12.15 C96.746,11.7419999 96.6500001,11.4060001 96.458,11.142 C96.2659999,10.8779999 95.9059999,10.746 95.378,10.746 C94.838,10.746 94.4659999,10.8750001 94.262,11.133 C94.0580001,11.3909999 93.956,11.7300001 93.956,12.15 L93.956,12.87 Z" id="Graphene"></path>
                    <g id="Group-16">
                        <polygon id="Combined-Shape" points="10.5 14.3528646 10.5 14.3903346 8.67673125 13.3059059 8.67673125 11.2269905 8.61538462 11.1893476 19.1532465 5.00262926 20.9942908 6.01446585 21 6.01115242 21 6.01760363 21.0027186 6.01909779 21 6.02070989 21 18.3598477 10.5 24.4479648 10.5 24.5 10.4555027 24.4737653 10.4102564 24.5 10.411937 24.4480798 2.22044605e-16 18.3094065 2.22044605e-16 6.10223048 0.0452529102 6.12523832 0.00787599784 6.10240209 10.4088305 -8.8817842e-16 12.2051282 1.04723909 12.1821653 1.06080222 12.2948718 3.11842566 3.59230214 8.19765963 3.59230214 16.2482445 3.6022151 16.2424894 10.4026795 20.1700092 17.3205128 16.1969799 17.3205128 10.3938645 10.5 14.3528646"></polygon>
                    </g>
                </g>
            </g>
        </g>
    </g>
</svg>