<?xml version="1.0" encoding="UTF-8"?>
<svg width="186px" height="61px" viewBox="0 0 186 61" version="1.1" xmlns="http://www.w3.org/2000/svg" xmlns:xlink="http://www.w3.org/1999/xlink">
    <!-- Generator: Sketch 47.1 (45422) - http://www.bohemiancoding.com/sketch -->
    <title>Group</title>
    <desc>Created with Sketch.</desc>
    <defs></defs>
    <g id="Page-1" stroke="none" stroke-width="1" fill="none" fill-rule="evenodd">
        <g id="Artboard" transform="translate(-270.000000, -72.000000)" fill="#FFFFFF">
            <g id="Group" transform="translate(270.000000, 72.000000)">
                <g id="Group-16">
                    <path d="M21.4488247,27.9674541 L21.3573585,27.8552044 L47.14298,12.7141762 L51.6950341,15.2342435 L51.7044486,15.2292464 L51.7044486,15.2394555 L51.708606,15.2417571 L51.7044486,15.2446105 L51.7044486,45.7148148 L25.9864791,60.8988586 L25.9864791,60.9820711 L25.9161942,60.9403553 L25.8392024,60.9858117 L25.8269915,60.8874114 L-1.77635684e-15,45.5584764 L-1.77635684e-15,15.1448276 L0.0472738011,15.1448276 L0.0457331016,15.1410282 L25.8313547,0 L30.2812929,2.60409584 L30.2453675,2.63093886 L30.3470901,2.57088123 L30.3470901,7.82931846 L8.90955617,20.4482595 L8.90955617,40.4855563 L8.9305381,40.4761386 L25.7305699,50.2424262 L45.6007316,38.7557953 L47.2767364,23.1109129 L25.8392024,35.7491621 L25.8330765,35.7034045 L21.4488247,33.0931485 L21.4488247,27.9674541 Z" id="Combined-Shape"></path>
                    <polyline id="Path-11" points="42.8061831 20.5670498 42.8061831 40.4367325 47.318118 42.9890124 47.318118 21.5279801 42.8061831 20.5670498"></polyline>
                </g>
                <path d="M70.575,15.694 L81.235,15.694 C84.3783335,15.694 86.606,16.3226665 87.918,17.58 C89.23,18.8373335 89.886,20.6686665 89.886,23.074 L89.886,26.805 C89.886,29.183 89.1958335,31.0006665 87.8155,32.258 C86.4351665,33.5153335 84.1596665,34.144 80.989,34.144 L75.741,34.144 L75.741,43 L70.575,43 L70.575,15.694 Z M84.72,23.484 C84.72,22.336 84.4466665,21.5091665 83.9,21.0035 C83.3533335,20.4978335 82.3693335,20.245 80.948,20.245 L75.741,20.245 L75.741,29.593 L80.948,29.593 C82.3966665,29.593 83.3875,29.3196665 83.9205,28.773 C84.4535,28.2263335 84.72,27.3926665 84.72,26.272 L84.72,23.484 Z M104.183,43 L110.579,23.033 L105.454,23.033 L100.862,38.203 L96.311,23.033 L91.186,23.033 L97.5,43 L99.263,43 L96.762,51.077 L101.518,51.077 L104.183,43 Z M124.138,42.631 L123.564,38.818 C123.126666,38.9546665 122.696166,39.0571665 122.2725,39.1255 C121.848834,39.1938335 121.445666,39.228 121.063,39.228 C120.407,39.228 119.942334,39.0708335 119.669,38.7565 C119.395666,38.4421665 119.259,38.0116665 119.259,37.465 L119.259,27.01 L124.056,27.01 L124.384,23.033 L119.259,23.033 L119.259,17.375 L114.257,18.072 L114.257,23.033 L111.264,23.033 L111.264,27.01 L114.257,27.01 L114.257,38.121 C114.257,41.647 116.088334,43.41 119.751,43.41 C120.079,43.41 120.441166,43.3895 120.8375,43.3485 C121.233834,43.3075 121.630166,43.2528335 122.0265,43.1845 C122.422834,43.1161665 122.8055,43.0341665 123.1745,42.9385 C123.5435,42.8428335 123.864666,42.7403335 124.138,42.631 Z M139.132,43 L144.134,43 L144.134,28.527 C144.134,26.723 143.799166,25.288 143.1295,24.222 C142.459834,23.156 141.291334,22.623 139.624,22.623 C138.558,22.623 137.355334,22.8006665 136.016,23.156 C134.676666,23.5113335 133.446666,23.976 132.326,24.55 L132.326,14.177 L127.324,14.874 L127.324,43 L132.326,43 L132.326,29.142 C133.228,28.6773335 134.164166,28.281 135.1345,27.953 C136.104834,27.625 136.904334,27.461 137.533,27.461 C138.107,27.461 138.517,27.5908335 138.763,27.8505 C139.009,28.1101665 139.132,28.5133335 139.132,29.06 L139.132,43 Z M165.401,35.538 C165.401,36.5766665 165.271166,37.5675 165.0115,38.5105 C164.751834,39.4535 164.294,40.2871665 163.638,41.0115 C162.982,41.7358335 162.093666,42.3166665 160.973,42.754 C159.852334,43.1913335 158.431,43.41 156.709,43.41 C154.987,43.41 153.565666,43.1913335 152.445,42.754 C151.324334,42.3166665 150.436,41.7358335 149.78,41.0115 C149.124,40.2871665 148.666166,39.4535 148.4065,38.5105 C148.146834,37.5675 148.017,36.5766665 148.017,35.538 L148.017,30.495 C148.017,29.4836665 148.146834,28.4996665 148.4065,27.543 C148.666166,26.5863335 149.124,25.7458335 149.78,25.0215 C150.436,24.2971665 151.324334,23.7163335 152.445,23.279 C153.565666,22.8416665 154.987,22.623 156.709,22.623 C158.431,22.623 159.852334,22.8416665 160.973,23.279 C162.093666,23.7163335 162.982,24.2971665 163.638,25.0215 C164.294,25.7458335 164.751834,26.5863335 165.0115,27.543 C165.271166,28.4996665 165.401,29.4836665 165.401,30.495 L165.401,35.538 Z M160.399,30.331 C160.399,29.183 160.118834,28.322 159.5585,27.748 C158.998166,27.174 158.048334,26.887 156.709,26.887 C155.369666,26.887 154.419834,27.174 153.8595,27.748 C153.299166,28.322 153.019,29.183 153.019,30.331 L153.019,35.702 C153.019,36.85 153.299166,37.711 153.8595,38.285 C154.419834,38.859 155.369666,39.146 156.709,39.146 C158.048334,39.146 158.998166,38.859 159.5585,38.285 C160.118834,37.711 160.399,36.85 160.399,35.702 L160.399,30.331 Z M181.297,43 L186.299,43 L186.299,28.527 C186.299,26.723 185.964166,25.288 185.2945,24.222 C184.624834,23.156 183.456334,22.623 181.789,22.623 C180.613666,22.623 179.301666,22.8143335 177.853,23.197 C176.404334,23.5796665 175.051334,24.0853335 173.794,24.714 L173.302,23.033 L169.489,23.033 L169.489,43 L174.491,43 L174.491,29.142 C175.393,28.6773335 176.329166,28.281 177.2995,27.953 C178.269834,27.625 179.069334,27.461 179.698,27.461 C180.272,27.461 180.682,27.5908335 180.928,27.8505 C181.174,28.1101665 181.297,28.5133335 181.297,29.06 L181.297,43 Z" id="Python"></path>
            </g>
        </g>
    </g>
</svg>