<?xml version="1.0" encoding="UTF-8"?>
<svg width="186px" height="61px" viewBox="0 0 186 61" version="1.1" xmlns="http://www.w3.org/2000/svg" xmlns:xlink="http://www.w3.org/1999/xlink">
    <!-- Generator: Sketch 47 (45396) - http://www.bohemiancoding.com/sketch -->
    <title>Group</title>
    <desc>Created with Sketch.</desc>
    <defs></defs>
    <g id="Page-1" stroke="none" stroke-width="1" fill="none" fill-rule="evenodd">
        <g id="Artboard" transform="translate(-140.000000, -72.000000)">
            <g id="Group" transform="translate(140.000000, 72.000000)">
                <g id="Group-16">
                    <polygon id="Path-8" fill="#F25F3F" points="30.3470901 2.57088123 30.3470901 7.82931846 8.90955617 20.4482595 8.90955617 40.5215072 4.48184396 43.0742854 4.48184396 17.8418781"></polygon>
                    <polygon id="Path-9" fill="#FFAA5B" points="30.2812929 2.60409584 25.8313547 0 0.0457331016 15.1410282 4.49603836 17.8917168"></polygon>
                    <polygon id="Path-9" fill="#FFAA5B" points="51.4670375 40.4761386 47.0658862 37.9088123 25.7305699 50.2424262 8.9305381 40.4761386 4.46563345 43.0853092 21.2802647 53.0498405 25.7305699 55.800529"></polygon>
                    <polygon id="Path-9" fill="#FFAA5B" points="51.708606 15.2417571 47.14298 12.7141762 21.3573585 27.8552044 25.8076637 30.605893"></polygon>
                    <polygon id="Path-10" fill="#EB1919" points="0 15.1448276 4.50669508 17.8031975 4.50669508 43.065107 25.9864791 55.6472247 25.9864791 60.9820711 0 45.5584764"></polygon>
                    <polyline id="Path-11" fill="#EB1919" points="42.8061831 20.5670498 42.8061831 40.4367325 47.318118 42.9890124 47.318118 21.5279801 42.8061831 20.5670498"></polyline>
                    <polygon id="Path-8" fill="#F25F3F" transform="translate(38.771825, 38.107529) rotate(-180.000000) translate(-38.771825, -38.107529) " points="51.7044486 15.2292464 51.7044486 20.4876836 30.2669146 33.2277257 30.2669146 53.1041452 51.7044486 40.4658959 51.7044486 45.7004791 25.8392024 60.9858117 25.8392024 30.5002432"></polygon>
                    <polygon id="Path-12" fill="#EB1919" points="21.4488247 27.8122605 21.4488247 33.0931485 25.8624352 35.7208838 25.8624352 30.4930155"></polygon>
                </g>
                <path d="M70.575,15.694 L81.235,15.694 C84.3783335,15.694 86.606,16.3226665 87.918,17.58 C89.23,18.8373335 89.886,20.6686665 89.886,23.074 L89.886,26.805 C89.886,29.183 89.1958335,31.0006665 87.8155,32.258 C86.4351665,33.5153335 84.1596665,34.144 80.989,34.144 L75.741,34.144 L75.741,43 L70.575,43 L70.575,15.694 Z M84.72,23.484 C84.72,22.336 84.4466665,21.5091665 83.9,21.0035 C83.3533335,20.4978335 82.3693335,20.245 80.948,20.245 L75.741,20.245 L75.741,29.593 L80.948,29.593 C82.3966665,29.593 83.3875,29.3196665 83.9205,28.773 C84.4535,28.2263335 84.72,27.3926665 84.72,26.272 L84.72,23.484 Z M104.183,43 L110.579,23.033 L105.454,23.033 L100.862,38.203 L96.311,23.033 L91.186,23.033 L97.5,43 L99.263,43 L96.762,51.077 L101.518,51.077 L104.183,43 Z M124.138,42.631 L123.564,38.818 C123.126666,38.9546665 122.696166,39.0571665 122.2725,39.1255 C121.848834,39.1938335 121.445666,39.228 121.063,39.228 C120.407,39.228 119.942334,39.0708335 119.669,38.7565 C119.395666,38.4421665 119.259,38.0116665 119.259,37.465 L119.259,27.01 L124.056,27.01 L124.384,23.033 L119.259,23.033 L119.259,17.375 L114.257,18.072 L114.257,23.033 L111.264,23.033 L111.264,27.01 L114.257,27.01 L114.257,38.121 C114.257,41.647 116.088334,43.41 119.751,43.41 C120.079,43.41 120.441166,43.3895 120.8375,43.3485 C121.233834,43.3075 121.630166,43.2528335 122.0265,43.1845 C122.422834,43.1161665 122.8055,43.0341665 123.1745,42.9385 C123.5435,42.8428335 123.864666,42.7403335 124.138,42.631 Z M139.132,43 L144.134,43 L144.134,28.527 C144.134,26.723 143.799166,25.288 143.1295,24.222 C142.459834,23.156 141.291334,22.623 139.624,22.623 C138.558,22.623 137.355334,22.8006665 136.016,23.156 C134.676666,23.5113335 133.446666,23.976 132.326,24.55 L132.326,14.177 L127.324,14.874 L127.324,43 L132.326,43 L132.326,29.142 C133.228,28.6773335 134.164166,28.281 135.1345,27.953 C136.104834,27.625 136.904334,27.461 137.533,27.461 C138.107,27.461 138.517,27.5908335 138.763,27.8505 C139.009,28.1101665 139.132,28.5133335 139.132,29.06 L139.132,43 Z M165.401,35.538 C165.401,36.5766665 165.271166,37.5675 165.0115,38.5105 C164.751834,39.4535 164.294,40.2871665 163.638,41.0115 C162.982,41.7358335 162.093666,42.3166665 160.973,42.754 C159.852334,43.1913335 158.431,43.41 156.709,43.41 C154.987,43.41 153.565666,43.1913335 152.445,42.754 C151.324334,42.3166665 150.436,41.7358335 149.78,41.0115 C149.124,40.2871665 148.666166,39.4535 148.4065,38.5105 C148.146834,37.5675 148.017,36.5766665 148.017,35.538 L148.017,30.495 C148.017,29.4836665 148.146834,28.4996665 148.4065,27.543 C148.666166,26.5863335 149.124,25.7458335 149.78,25.0215 C150.436,24.2971665 151.324334,23.7163335 152.445,23.279 C153.565666,22.8416665 154.987,22.623 156.709,22.623 C158.431,22.623 159.852334,22.8416665 160.973,23.279 C162.093666,23.7163335 162.982,24.2971665 163.638,25.0215 C164.294,25.7458335 164.751834,26.5863335 165.0115,27.543 C165.271166,28.4996665 165.401,29.4836665 165.401,30.495 L165.401,35.538 Z M160.399,30.331 C160.399,29.183 160.118834,28.322 159.5585,27.748 C158.998166,27.174 158.048334,26.887 156.709,26.887 C155.369666,26.887 154.419834,27.174 153.8595,27.748 C153.299166,28.322 153.019,29.183 153.019,30.331 L153.019,35.702 C153.019,36.85 153.299166,37.711 153.8595,38.285 C154.419834,38.859 155.369666,39.146 156.709,39.146 C158.048334,39.146 158.998166,38.859 159.5585,38.285 C160.118834,37.711 160.399,36.85 160.399,35.702 L160.399,30.331 Z M181.297,43 L186.299,43 L186.299,28.527 C186.299,26.723 185.964166,25.288 185.2945,24.222 C184.624834,23.156 183.456334,22.623 181.789,22.623 C180.613666,22.623 179.301666,22.8143335 177.853,23.197 C176.404334,23.5796665 175.051334,24.0853335 173.794,24.714 L173.302,23.033 L169.489,23.033 L169.489,43 L174.491,43 L174.491,29.142 C175.393,28.6773335 176.329166,28.281 177.2995,27.953 C178.269834,27.625 179.069334,27.461 179.698,27.461 C180.272,27.461 180.682,27.5908335 180.928,27.8505 C181.174,28.1101665 181.297,28.5133335 181.297,29.06 L181.297,43 Z" id="Python" fill="#000000"></path>
            </g>
        </g>
    </g>
</svg>